<svg xmlns="http://www.w3.org/2000/svg" xmlns:xlink="http://www.w3.org/1999/xlink" width="500" zoomAndPan="magnify" viewBox="0 0 375 374.999991" height="500" preserveAspectRatio="xMidYMid meet" version="1.0"><rect x="-37.5" width="450" fill="#ffffff" y="-37.499999" height="449.999989" fill-opacity="1"/><path fill="#aad4c8" d="M 60.96875 93.546875 L 66.964844 93.546875 L 66.964844 268.804688 L 60.96875 268.804688 Z M 60.96875 93.546875 " fill-opacity="1" fill-rule="nonzero"/><path fill="#aad4c8" d="M 72.964844 93.546875 L 78.964844 93.546875 L 78.964844 268.804688 L 72.964844 268.804688 Z M 72.964844 93.546875 " fill-opacity="1" fill-rule="nonzero"/><path fill="#aad4c8" d="M 296.039062 93.546875 L 302.027344 93.546875 L 302.027344 268.804688 L 296.039062 268.804688 Z M 296.039062 93.546875 " fill-opacity="1" fill-rule="nonzero"/><path fill="#aad4c8" d="M 308.035156 93.546875 L 314.03125 93.546875 L 314.03125 268.804688 L 308.035156 268.804688 Z M 308.035156 93.546875 " fill-opacity="1" fill-rule="nonzero"/><path fill="#aad4c8" d="M 87.761719 93.546875 L 106.507812 93.546875 L 106.507812 252.019531 L 87.761719 252.019531 Z M 87.761719 93.546875 " fill-opacity="1" fill-rule="nonzero"/><path fill="#aad4c8" d="M 113.257812 93.546875 L 122.628906 93.546875 L 122.628906 252.019531 L 113.257812 252.019531 Z M 113.257812 93.546875 " fill-opacity="1" fill-rule="nonzero"/><path fill="#aad4c8" d="M 131.253906 93.546875 L 140.628906 93.546875 L 140.628906 252.019531 L 131.253906 252.019531 Z M 131.253906 93.546875 " fill-opacity="1" fill-rule="nonzero"/><path fill="#aad4c8" d="M 153.277344 93.546875 L 175.398438 93.546875 L 175.398438 252.019531 L 153.277344 252.019531 Z M 153.277344 93.546875 " fill-opacity="1" fill-rule="nonzero"/><path fill="#aad4c8" d="M 233.519531 93.546875 L 255.640625 93.546875 L 255.640625 252.019531 L 233.519531 252.019531 Z M 233.519531 93.546875 " fill-opacity="1" fill-rule="nonzero"/><path fill="#aad4c8" d="M 263.507812 93.546875 L 285.636719 93.546875 L 285.636719 252.019531 L 263.507812 252.019531 Z M 263.507812 93.546875 " fill-opacity="1" fill-rule="nonzero"/><path fill="#aad4c8" d="M 198.273438 93.546875 L 206.4375 93.546875 L 206.4375 252.019531 L 198.273438 252.019531 Z M 198.273438 93.546875 " fill-opacity="1" fill-rule="nonzero"/><path fill="#aad4c8" d="M 179.375 93.546875 L 183.53125 93.546875 L 183.53125 274.886719 L 179.375 274.886719 Z M 179.375 93.546875 " fill-opacity="1" fill-rule="nonzero"/><path fill="#aad4c8" d="M 213.28125 93.546875 L 221.429688 93.546875 L 221.429688 252.019531 L 213.28125 252.019531 Z M 213.28125 93.546875 " fill-opacity="1" fill-rule="nonzero"/><path fill="#616e7d" d="M 95.265625 275.144531 C 95.265625 278.546875 98.246094 281.453125 103.1875 281.453125 C 107.691406 281.453125 111.21875 278.726562 111.21875 274.675781 C 111.21875 271.839844 109.402344 269.796875 106.460938 268.652344 L 106.460938 268.546875 C 109.363281 267.183594 110.34375 265.066406 110.34375 263.09375 C 110.34375 260.1875 108.054688 257.359375 103.476562 257.359375 C 99.335938 257.359375 96.183594 259.867188 96.183594 263.558594 C 96.183594 265.570312 97.304688 267.574219 99.925781 268.796875 L 99.953125 268.902344 C 97.054688 270.121094 95.265625 272.203125 95.265625 275.144531 Z M 99.1875 263.347656 C 99.1875 261.339844 100.648438 259.617188 103.292969 259.617188 C 106.167969 259.617188 107.289062 261.554688 107.289062 263.417969 C 107.289062 265.535156 105.734375 266.964844 103.695312 267.644531 C 100.972656 266.929688 99.1875 265.679688 99.1875 263.347656 Z M 102.789062 269.90625 C 105.984375 270.800781 107.988281 272.164062 107.988281 274.996094 C 107.988281 277.398438 106.132812 279.15625 103.261719 279.15625 C 100.246094 279.15625 98.433594 277.074219 98.539062 274.710938 C 98.539062 272.488281 100.03125 270.691406 102.789062 269.90625 Z M 102.789062 269.90625 " fill-opacity="1" fill-rule="nonzero"/><path fill="#616e7d" d="M 121.890625 275.144531 C 121.890625 278.546875 124.871094 281.453125 129.8125 281.453125 C 134.320312 281.453125 137.839844 278.726562 137.839844 274.675781 C 137.839844 271.839844 136.027344 269.796875 133.082031 268.652344 L 133.082031 268.546875 C 135.988281 267.183594 136.96875 265.066406 136.96875 263.09375 C 136.96875 260.1875 134.683594 257.359375 130.105469 257.359375 C 125.957031 257.359375 122.796875 259.867188 122.796875 263.558594 C 122.796875 265.570312 123.929688 267.574219 126.539062 268.796875 L 126.578125 268.902344 C 123.675781 270.121094 121.890625 272.203125 121.890625 275.144531 Z M 125.8125 263.347656 C 125.8125 261.339844 127.265625 259.617188 129.917969 259.617188 C 132.792969 259.617188 133.914062 261.554688 133.914062 263.417969 C 133.914062 265.535156 132.355469 266.964844 130.320312 267.644531 C 127.59375 266.929688 125.8125 265.679688 125.8125 263.347656 Z M 129.410156 269.90625 C 132.609375 270.800781 134.605469 272.164062 134.605469 274.996094 C 134.605469 277.398438 132.757812 279.15625 129.882812 279.15625 C 126.871094 279.15625 125.050781 277.074219 125.160156 274.710938 C 125.160156 272.488281 126.648438 270.691406 129.410156 269.90625 Z M 129.410156 269.90625 " fill-opacity="1" fill-rule="nonzero"/><path fill="#616e7d" d="M 148.515625 275.144531 C 148.515625 278.546875 151.496094 281.453125 156.433594 281.453125 C 160.933594 281.453125 164.460938 278.726562 164.460938 274.675781 C 164.460938 271.839844 162.644531 269.796875 159.703125 268.652344 L 159.703125 268.546875 C 162.605469 267.183594 163.589844 265.066406 163.589844 263.09375 C 163.589844 260.1875 161.304688 257.359375 156.726562 257.359375 C 152.585938 257.359375 149.421875 259.867188 149.421875 263.558594 C 149.421875 265.570312 150.546875 267.574219 153.164062 268.796875 L 153.199219 268.902344 C 150.292969 270.121094 148.515625 272.203125 148.515625 275.144531 Z M 152.441406 263.347656 C 152.441406 261.339844 153.890625 259.617188 156.542969 259.617188 C 159.414062 259.617188 160.539062 261.554688 160.539062 263.417969 C 160.539062 265.535156 158.976562 266.964844 156.941406 267.644531 C 154.222656 266.929688 152.441406 265.679688 152.441406 263.347656 Z M 156.03125 269.90625 C 159.230469 270.800781 161.226562 272.164062 161.226562 274.996094 C 161.226562 277.398438 159.375 279.15625 156.503906 279.15625 C 153.488281 279.15625 151.667969 277.074219 151.785156 274.710938 C 151.785156 272.488281 153.269531 270.691406 156.03125 269.90625 Z M 156.03125 269.90625 " fill-opacity="1" fill-rule="nonzero"/><path fill="#616e7d" d="M 206.4375 274.746094 C 206.4375 278.078125 209.3125 280.917969 214.078125 280.917969 C 218.429688 280.917969 221.832031 278.25 221.832031 274.289062 C 221.832031 271.519531 220.078125 269.523438 217.234375 268.402344 L 217.234375 268.296875 C 220.039062 266.964844 220.988281 264.894531 220.988281 262.96875 C 220.988281 260.128906 218.777344 257.359375 214.359375 257.359375 C 210.363281 257.359375 207.320312 259.8125 207.320312 263.425781 C 207.320312 265.390625 208.40625 267.347656 210.925781 268.542969 L 210.960938 268.648438 C 208.160156 269.839844 206.4375 271.871094 206.4375 274.746094 Z M 210.21875 263.210938 C 210.21875 261.25 211.628906 259.570312 214.1875 259.570312 C 216.957031 259.570312 218.046875 261.460938 218.046875 263.28125 C 218.046875 265.351562 216.535156 266.753906 214.570312 267.417969 C 211.941406 266.71875 210.21875 265.492188 210.21875 263.210938 Z M 213.691406 269.628906 C 216.773438 270.503906 218.703125 271.839844 218.703125 274.605469 C 218.703125 276.957031 216.921875 278.675781 214.148438 278.675781 C 211.238281 278.675781 209.484375 276.636719 209.589844 274.324219 C 209.589844 272.152344 211.03125 270.394531 213.691406 269.628906 Z M 213.691406 269.628906 " fill-opacity="1" fill-rule="nonzero"/><path fill="#616e7d" d="M 232.695312 274.746094 C 232.695312 278.078125 235.574219 280.917969 240.339844 280.917969 C 244.691406 280.917969 248.089844 278.25 248.089844 274.289062 C 248.089844 271.519531 246.335938 269.523438 243.492188 268.402344 L 243.492188 268.296875 C 246.300781 266.964844 247.25 264.894531 247.25 262.96875 C 247.25 260.128906 245.035156 257.359375 240.621094 257.359375 C 236.625 257.359375 233.582031 259.8125 233.582031 263.425781 C 233.582031 265.390625 234.664062 267.347656 237.1875 268.542969 L 237.21875 268.648438 C 234.414062 269.839844 232.695312 271.871094 232.695312 274.746094 Z M 236.488281 263.210938 C 236.488281 261.25 237.882812 259.570312 240.445312 259.570312 C 243.214844 259.570312 244.300781 261.460938 244.300781 263.28125 C 244.300781 265.351562 242.796875 266.753906 240.828125 267.417969 C 238.203125 266.71875 236.488281 265.492188 236.488281 263.210938 Z M 239.957031 269.628906 C 243.046875 270.503906 244.964844 271.839844 244.964844 274.605469 C 244.964844 276.957031 243.179688 278.675781 240.414062 278.675781 C 237.503906 278.675781 235.75 276.636719 235.855469 274.324219 C 235.855469 272.152344 237.292969 270.394531 239.957031 269.628906 Z M 239.957031 269.628906 " fill-opacity="1" fill-rule="nonzero"/><path fill="#616e7d" d="M 258.960938 274.746094 C 258.960938 278.078125 261.835938 280.917969 266.601562 280.917969 C 270.949219 280.917969 274.351562 278.25 274.351562 274.289062 C 274.351562 271.519531 272.59375 269.523438 269.753906 268.402344 L 269.753906 268.296875 C 272.5625 266.964844 273.511719 264.894531 273.511719 262.96875 C 273.511719 260.128906 271.300781 257.359375 266.882812 257.359375 C 262.886719 257.359375 259.835938 259.8125 259.835938 263.425781 C 259.835938 265.390625 260.925781 267.347656 263.445312 268.542969 L 263.480469 268.648438 C 260.679688 269.839844 258.960938 271.871094 258.960938 274.746094 Z M 262.738281 263.210938 C 262.738281 261.25 264.152344 259.570312 266.703125 259.570312 C 269.476562 259.570312 270.558594 261.460938 270.558594 263.28125 C 270.558594 265.351562 269.058594 266.753906 267.09375 267.417969 C 264.464844 266.71875 262.738281 265.492188 262.738281 263.210938 Z M 266.214844 269.628906 C 269.296875 270.503906 271.226562 271.839844 271.226562 274.605469 C 271.226562 276.957031 269.445312 278.675781 266.671875 278.675781 C 263.757812 278.675781 262.007812 276.636719 262.109375 274.324219 C 262.109375 272.152344 263.550781 270.394531 266.214844 269.628906 Z M 266.214844 269.628906 " fill-opacity="1" fill-rule="nonzero"/></svg>