<?xml version="1.0" encoding="utf-8"?>
<!-- Generator: Adobe Illustrator 27.5.0, SVG Export Plug-In . SVG Version: 6.00 Build 0)  -->
<svg version="1.1" xmlns="http://www.w3.org/2000/svg" xmlns:xlink="http://www.w3.org/1999/xlink" x="0px" y="0px"
	 viewBox="0 0 1122 1122" style="enable-background:new 0 0 1122 1122;" xml:space="preserve">
<g id="Bg">
	<rect style="fill:#FFFFFF;" width="1122" height="1122"/>
</g>
<g id="Object">
	<g>
		<path style="fill:none;" d="M627.089,820.779c-0.309,6.923,4.938,13.014,13.641,13.014c8.298,0,13.635-5.138,13.635-12.17
			c0-8.28-5.78-12.274-14.997-14.894C631.404,809.022,627.089,814.285,627.089,820.779z"/>
		<path style="fill:none;" d="M628.976,787.531c0,6.824,5.157,10.491,13.024,12.589c5.871-1.991,10.392-6.185,10.392-12.377
			c0-5.453-3.256-11.112-11.547-11.112C633.189,776.632,628.976,781.661,628.976,787.531z"/>
		<path style="fill:none;" d="M784.23,820.779c-0.296,6.923,4.932,13.014,13.653,13.014c8.298,0,13.63-5.138,13.63-12.17
			c0-8.28-5.774-12.274-15.003-14.894C788.545,809.022,784.23,814.285,784.23,820.779z"/>
		<path style="fill:none;" d="M786.118,787.531c0,6.824,5.156,10.491,13.024,12.589c5.883-1.991,10.373-6.185,10.373-12.377
			c0-5.453-3.238-11.112-11.535-11.112C790.343,776.632,786.118,781.661,786.118,787.531z"/>
		<path style="fill:none;" d="M456.099,787.937c0,6.972,5.332,10.718,13.472,12.861c6.088-2.033,10.767-6.321,10.767-12.655
			c0-5.574-3.371-11.365-11.965-11.365C460.439,776.777,456.099,781.933,456.099,787.937z"/>
		<path style="fill:none;" d="M294.824,821.931c-0.315,7.081,5.108,13.303,14.138,13.303c8.581,0,14.137-5.253,14.137-12.44
			c0-8.476-5.992-12.555-15.554-15.233C299.297,809.909,294.824,815.289,294.824,821.931z"/>
		<path style="fill:none;" d="M376.436,787.937c0,6.972,5.32,10.718,13.484,12.861c6.083-2.033,10.755-6.321,10.755-12.655
			c0-5.574-3.359-11.365-11.959-11.365C380.782,776.777,376.436,781.933,376.436,787.937z"/>
		<path style="fill:none;" d="M296.773,787.937c0,6.972,5.332,10.718,13.483,12.861c6.101-2.033,10.755-6.321,10.755-12.655
			c0-5.574-3.353-11.365-11.953-11.365C301.143,776.777,296.773,781.933,296.773,787.937z"/>
		<path style="fill:none;" d="M707.575,787.531c0,6.824,5.126,10.491,12.988,12.589c5.883-1.991,10.385-6.185,10.385-12.377
			c0-5.453-3.25-11.112-11.536-11.112C711.751,776.632,707.575,781.661,707.575,787.531z"/>
		<path style="fill:none;" d="M374.482,821.931c-0.327,7.081,5.114,13.303,14.125,13.303c8.6,0,14.132-5.253,14.132-12.44
			c0-8.476-5.974-12.555-15.548-15.233C378.936,809.909,374.482,815.289,374.482,821.931z"/>
		<path style="fill:none;" d="M454.145,821.931c-0.351,7.081,5.096,13.303,14.119,13.303c8.582,0,14.125-5.253,14.125-12.44
			c0-8.476-5.967-12.555-15.542-15.233C458.581,809.909,454.145,815.289,454.145,821.931z"/>
		<path style="fill:none;" d="M705.674,820.779c-0.315,6.923,4.939,13.014,13.641,13.014c8.273,0,13.617-5.138,13.617-12.17
			c0-8.28-5.737-12.274-14.985-14.894C709.983,809.022,705.674,814.285,705.674,820.779z"/>
		<rect x="182.419" y="279.897" style="fill:#AAD4C8;" width="17.944" height="524.369"/>
		<rect x="218.314" y="279.897" style="fill:#AAD4C8;" width="17.951" height="524.369"/>
		<rect x="885.748" y="279.897" style="fill:#AAD4C8;" width="17.914" height="524.369"/>
		<rect x="921.636" y="279.897" style="fill:#AAD4C8;" width="17.944" height="524.369"/>
		<rect x="262.579" y="279.897" style="fill:#AAD4C8;" width="56.096" height="474.149"/>
		<rect x="338.871" y="279.897" style="fill:#AAD4C8;" width="28.039" height="474.149"/>
		<rect x="392.71" y="279.897" style="fill:#AAD4C8;" width="28.051" height="474.149"/>
		<rect x="458.605" y="279.897" style="fill:#AAD4C8;" width="66.185" height="474.149"/>
		<rect x="698.696" y="279.897" style="fill:#AAD4C8;" width="66.185" height="474.149"/>
		<rect x="788.418" y="279.897" style="fill:#AAD4C8;" width="66.21" height="474.149"/>
		<rect x="593.239" y="279.897" style="fill:#AAD4C8;" width="24.427" height="474.149"/>
		<rect x="536.689" y="279.897" style="fill:#AAD4C8;" width="12.437" height="542.567"/>
		<rect x="638.133" y="279.897" style="fill:#AAD4C8;" width="24.39" height="474.149"/>
		<path style="fill:#616E7D;" d="M285.038,823.227c0,10.185,8.915,18.876,23.694,18.876c13.484,0,24.033-8.158,24.033-20.278
			c0-8.482-5.435-14.589-14.235-18.02v-0.318c8.69-4.079,11.62-10.406,11.62-16.313c0-8.691-6.851-17.158-20.547-17.158
			c-12.395,0-21.824,7.505-21.824,18.556c0,6.013,3.353,12.01,11.196,15.669l0.085,0.315
			C290.382,808.205,285.038,814.427,285.038,823.227z M296.773,787.937c0-6.003,4.369-11.159,12.285-11.159
			c8.6,0,11.953,5.791,11.953,11.365c0,6.334-4.654,10.621-10.755,12.655C302.105,798.655,296.773,794.909,296.773,787.937z
			 M307.546,807.56c9.563,2.679,15.554,6.758,15.554,15.233c0,7.187-5.556,12.44-14.137,12.44c-9.03,0-14.453-6.221-14.138-13.303
			C294.824,815.289,299.297,809.909,307.546,807.56z"/>
		<path style="fill:#616E7D;" d="M364.695,823.227c0,10.185,8.921,18.876,23.7,18.876c13.49,0,24.021-8.158,24.021-20.278
			c0-8.482-5.423-14.589-14.235-18.02v-0.318c8.697-4.079,11.632-10.406,11.632-16.313c0-8.691-6.845-17.158-20.541-17.158
			c-12.406,0-21.86,7.505-21.86,18.556c0,6.013,3.383,12.01,11.196,15.669l0.109,0.315
			C370.039,808.205,364.695,814.427,364.695,823.227z M376.436,787.937c0-6.003,4.346-11.159,12.28-11.159
			c8.6,0,11.959,5.791,11.959,11.365c0,6.334-4.672,10.621-10.755,12.655C381.756,798.655,376.436,794.909,376.436,787.937z
			 M387.191,807.56c9.574,2.679,15.548,6.758,15.548,15.233c0,7.187-5.532,12.44-14.132,12.44c-9.012,0-14.452-6.221-14.125-13.303
			C374.482,815.289,378.936,809.909,387.191,807.56z"/>
		<path style="fill:#616E7D;" d="M444.359,823.227c0,10.185,8.921,18.876,23.694,18.876c13.466,0,24.014-8.158,24.014-20.278
			c0-8.482-5.429-14.589-14.241-18.02v-0.318c8.685-4.079,11.632-10.406,11.632-16.313c0-8.691-6.839-17.158-20.535-17.158
			c-12.388,0-21.854,7.505-21.854,18.556c0,6.013,3.365,12.01,11.202,15.669l0.097,0.315
			C449.678,808.205,444.359,814.427,444.359,823.227z M456.099,787.937c0-6.003,4.339-11.159,12.274-11.159
			c8.594,0,11.965,5.791,11.965,11.365c0,6.334-4.678,10.621-10.767,12.655C461.432,798.655,456.099,794.909,456.099,787.937z
			 M466.848,807.56c9.574,2.679,15.542,6.758,15.542,15.233c0,7.187-5.543,12.44-14.125,12.44c-9.023,0-14.47-6.221-14.119-13.303
			C454.145,815.289,458.581,809.909,466.848,807.56z"/>
		<path style="fill:#616E7D;" d="M617.666,822.041c0,9.968,8.594,18.462,22.853,18.462c13.024,0,23.197-7.974,23.197-19.83
			c0-8.288-5.247-14.259-13.756-17.618v-0.309c8.4-3.992,11.233-10.18,11.233-15.948c0-8.497-6.615-16.782-19.826-16.782
			c-11.959,0-21.067,7.341-21.067,18.15c0,5.877,3.255,11.741,10.791,15.312l0.103,0.315
			C622.816,807.358,617.666,813.437,617.666,822.041z M628.976,787.531c0-5.871,4.212-10.9,11.869-10.9
			c8.291,0,11.547,5.659,11.547,11.112c0,6.191-4.521,10.385-10.392,12.377C634.133,798.023,628.976,794.355,628.976,787.531z
			 M639.368,806.729c9.217,2.62,14.997,6.614,14.997,14.894c0,7.032-5.338,12.17-13.635,12.17c-8.703,0-13.95-6.091-13.641-13.014
			C627.089,814.285,631.404,809.022,639.368,806.729z"/>
		<path style="fill:#616E7D;" d="M696.227,822.041c0,9.968,8.612,18.462,22.871,18.462c13.018,0,23.186-7.974,23.186-19.83
			c0-8.288-5.242-14.259-13.757-17.618v-0.309c8.4-3.992,11.245-10.18,11.245-15.948c0-8.497-6.621-16.782-19.839-16.782
			c-11.953,0-21.061,7.341-21.061,18.15c0,5.877,3.238,11.741,10.797,15.312l0.09,0.315
			C701.365,807.358,696.227,813.437,696.227,822.041z M707.575,787.531c0-5.871,4.176-10.9,11.837-10.9
			c8.285,0,11.536,5.659,11.536,11.112c0,6.191-4.503,10.385-10.385,12.377C712.701,798.023,707.575,794.355,707.575,787.531z
			 M717.948,806.729c9.248,2.62,14.985,6.614,14.985,14.894c0,7.032-5.344,12.17-13.617,12.17c-8.703,0-13.956-6.091-13.641-13.014
			C705.674,814.285,709.983,809.022,717.948,806.729z"/>
		<path style="fill:#616E7D;" d="M774.813,822.041c0,9.968,8.6,18.462,22.859,18.462c13.006,0,23.185-7.974,23.185-19.83
			c0-8.288-5.253-14.259-13.751-17.618v-0.309c8.4-3.992,11.239-10.18,11.239-15.948c0-8.497-6.615-16.782-19.826-16.782
			c-11.965,0-21.086,7.341-21.086,18.15c0,5.877,3.262,11.741,10.791,15.312l0.109,0.315
			C779.951,807.358,774.813,813.437,774.813,822.041z M786.118,787.531c0-5.871,4.224-10.9,11.862-10.9
			c8.297,0,11.535,5.659,11.535,11.112c0,6.191-4.491,10.385-10.373,12.377C791.275,798.023,786.118,794.355,786.118,787.531z
			 M796.51,806.729c9.229,2.62,15.003,6.614,15.003,14.894c0,7.032-5.332,12.17-13.63,12.17c-8.721,0-13.95-6.091-13.653-13.014
			C784.23,814.285,788.545,809.022,796.51,806.729z"/>
	</g>
</g>
</svg>
